<svg width="50" height="50" viewBox="0 0 50 50" fill="none" xmlns="http://www.w3.org/2000/svg">
<rect width="50" height="50" rx="10" fill="white"/>
<path d="M36.009 5H13.991C9.025 5 5 9.025 5 13.99V35.926C5 40.891 9.025 44.917 13.991 44.917H36.01C40.975 44.916 45 40.891 45 35.926V13.99C45 9.025 40.975 5 36.009 5ZM16.171 36.681C15.799 37.317 15.13 37.67 14.443 37.67C14.1 37.67 13.752 37.582 13.434 37.396C12.481 36.837 12.161 35.612 12.72 34.66L13.011 34.163C13.526 34.001 14.068 33.913 14.625 33.929H14.63C15.653 33.959 16.509 34.422 17.094 35.105L16.171 36.681ZM27.413 31.926H12C10.896 31.926 10 31.03 10 29.926C10 28.822 10.896 27.926 12 27.926H16.665L22.531 17.916L20.72 14.825C20.161 13.872 20.481 12.647 21.434 12.088C22.387 11.53 23.612 11.849 24.171 12.802L24.849 13.959L25.527 12.802C26.085 11.849 27.31 11.53 28.264 12.088C29.217 12.647 29.537 13.872 28.978 14.825L21.301 27.926H25.481C26.106 28.342 26.643 28.892 27.03 29.566L27.033 29.57C27.473 30.335 27.57 31.163 27.413 31.926ZM38 31.926H35.377L36.979 34.659C37.538 35.611 37.218 36.837 36.265 37.395C35.947 37.582 35.599 37.669 35.256 37.669C34.569 37.669 33.901 37.315 33.528 36.68L27.377 26.183C26.543 24.634 26.574 22.756 27.486 21.24L28.312 19.867L33.033 27.926H38C39.104 27.926 40 28.822 40 29.926C40 31.03 39.104 31.926 38 31.926Z" fill="#A60311"/>
</svg>
