<svg width="48" height="48" viewBox="0 0 48 48" fill="none" xmlns="http://www.w3.org/2000/svg">
<path d="M7 0.625C3.50444 0.625 0.625 3.50444 0.625 7C0.625 10.4956 3.50444 13.375 7 13.375H41C44.4956 13.375 47.375 10.4956 47.375 7C47.375 3.50444 44.4956 0.625 41 0.625H7ZM7 4.875H41C42.2007 4.875 43.125 5.79931 43.125 7C43.125 8.20069 42.2007 9.125 41 9.125H7C5.79931 9.125 4.875 8.20069 4.875 7C4.875 5.79931 5.79931 4.875 7 4.875ZM7 17.625C3.50444 17.625 0.625 20.5044 0.625 24C0.625 27.4956 3.50444 30.375 7 30.375H41C44.4956 30.375 47.375 27.4956 47.375 24C47.375 20.5044 44.4956 17.625 41 17.625H7ZM7 21.875H41C42.2007 21.875 43.125 22.7993 43.125 24C43.125 25.2007 42.2007 26.125 41 26.125H7C5.79931 26.125 4.875 25.2007 4.875 24C4.875 22.7993 5.79931 21.875 7 21.875ZM7 34.625C3.50444 34.625 0.625 37.5044 0.625 41C0.625 44.4956 3.50444 47.375 7 47.375H41C44.4956 47.375 47.375 44.4956 47.375 41C47.375 37.5044 44.4956 34.625 41 34.625H7ZM7 38.875H41C42.2007 38.875 43.125 39.7993 43.125 41C43.125 42.2007 42.2007 43.125 41 43.125H7C5.79931 43.125 4.875 42.2007 4.875 41C4.875 39.7993 5.79931 38.875 7 38.875Z" fill="black"/>
</svg>
