<svg width="50" height="50" viewBox="0 0 50 50" fill="none" xmlns="http://www.w3.org/2000/svg">
<rect width="50" height="50" rx="10" fill="white"/>
<rect x="5" y="5" width="40" height="40" rx="10" fill="#A60311"/>
<path d="M12.6693 10.014C12.4828 9.99263 12.2914 9.99742 12.0963 10.0169C12.0656 10.02 12.0361 10.0186 12.0052 10.0228C11.7806 10.0408 11.5625 10.0996 11.3639 10.1957C11.2403 10.2548 11.1255 10.3276 11.0221 10.4125C10.3682 10.8555 10 11.6076 10 12.2556V24.9462V37.8918C10 38.5396 10.3435 39.3674 11.1686 39.77C11.9937 40.1726 12.9276 39.99 13.5416 39.6557C13.5427 39.6548 13.5438 39.6538 13.5449 39.6528C13.4454 39.7074 14.0057 39.4139 14.7135 39.0521C15.4213 38.6904 16.4054 38.1871 17.5716 37.5929C19.9039 36.4045 22.9689 34.8448 26.0383 33.2826C29.1077 31.7203 32.1824 30.1577 34.5311 28.9606C35.7054 28.362 36.6967 27.8559 37.4184 27.4867C38.1388 27.1182 38.4938 26.9372 38.7108 26.8186C39.3575 26.4656 40.013 25.7843 39.9998 24.9052C39.9866 24.0261 39.3298 23.385 38.7075 23.068C38.429 22.9264 32.3475 19.8335 26.2629 16.7358C23.2206 15.187 20.1782 13.637 17.8548 12.4519C16.6931 11.8594 15.71 11.3561 15 10.9927C14.2899 10.6293 13.7542 10.3506 13.8086 10.3803C13.8075 10.3803 13.8064 10.3803 13.8053 10.3803C13.4769 10.2017 13.0867 10.0619 12.6693 10.014ZM13.3333 15.0246L22.9263 24.9374L13.3333 34.8532V24.9462V15.0246ZM19.3261 16.6509C21.0629 17.5355 22.7068 18.3714 24.6223 19.3466C25.8383 19.9657 26.0284 20.0626 27.1093 20.6125L25.1366 22.6519L19.3261 16.6509ZM30.0682 22.1157C32.0079 23.102 34.9394 24.5943 35.6313 24.9462C34.9223 25.3088 34.0041 25.7805 32.8872 26.3498C32.1112 26.7453 30.9895 27.3173 30.0813 27.7797C30.049 27.7361 30.0142 27.694 29.9771 27.6537L27.3469 24.9374L29.9771 22.2182C30.0091 22.1852 30.0395 22.151 30.0682 22.1157ZM25.1366 27.223L27.1288 29.28C26.1647 29.7706 25.3854 30.1691 24.3977 30.6718C22.5413 31.6167 20.9693 32.4183 19.2773 33.2797L25.1366 27.223Z" fill="white"/>
</svg>
