<svg width="50" height="50" viewBox="0 0 50 50" fill="none" xmlns="http://www.w3.org/2000/svg">
<g clip-path="url(#clip0_1_24)">
<rect width="50" height="50" rx="25" fill="#A60311"/>
<path d="M32.125 25C32.125 27.072 31.269 29.0591 29.7452 30.5243C28.2215 31.9894 26.1549 32.8125 24 32.8125C21.8451 32.8125 19.7785 31.9894 18.2548 30.5243C16.731 29.0591 15.875 27.072 15.875 25C15.875 24.5547 15.9237 24.1198 16.0077 23.6979H13.1667V34.1068C13.1667 34.8307 13.776 35.4167 14.529 35.4167H33.4738C33.8346 35.416 34.1804 35.2777 34.4353 35.0321C34.6902 34.7865 34.8333 34.4537 34.8333 34.1068V23.6979H31.9923C32.0763 24.1198 32.125 24.5547 32.125 25ZM24 30.2083C24.7115 30.2082 25.416 30.0732 26.0733 29.8113C26.7306 29.5493 27.3277 29.1654 27.8307 28.6815C28.3337 28.1977 28.7326 27.6233 29.0048 26.9911C29.2769 26.359 29.4168 25.6815 29.4167 24.9974C29.4165 24.3133 29.2762 23.6358 29.0037 23.0039C28.7313 22.3719 28.332 21.7976 27.8288 21.314C27.3256 20.8304 26.7282 20.4468 26.0708 20.1851C25.4134 19.9235 24.7088 19.7889 23.9973 19.7891C22.5603 19.7894 21.1824 20.3386 20.1666 21.3158C19.1507 22.2931 18.5803 23.6183 18.5806 25C18.581 26.3817 19.1522 27.7066 20.1685 28.6834C21.1848 29.6601 22.5631 30.2087 24 30.2083ZM30.5 19.5312H33.7473C33.963 19.5312 34.17 19.449 34.3228 19.3026C34.4756 19.1561 34.5618 18.9574 34.5625 18.75V15.6276C34.5625 15.4197 34.4766 15.2203 34.3237 15.0733C34.1708 14.9263 33.9635 14.8437 33.7473 14.8437H30.5C30.2838 14.8437 30.0764 14.9263 29.9236 15.0733C29.7707 15.2203 29.6848 15.4197 29.6848 15.6276V18.75C29.6875 19.1797 30.0531 19.5312 30.5 19.5312ZM24 0C17.1044 0 10.4912 2.63392 5.61522 7.32233C0.739277 12.0107 -2 18.3696 -2 25C-2 31.6304 0.739277 37.9893 5.61522 42.6777C10.4912 47.3661 17.1044 50 24 50C27.4144 50 30.7953 49.3534 33.9498 48.097C37.1042 46.8406 39.9705 44.9991 42.3848 42.6777C44.7991 40.3562 46.7142 37.6002 48.0209 34.5671C49.3275 31.5339 50 28.283 50 25C50 21.717 49.3275 18.4661 48.0209 15.4329C46.7142 12.3998 44.7991 9.64379 42.3848 7.32233C39.9705 5.00086 37.1042 3.15938 33.9498 1.90301C30.7953 0.646644 27.4144 0 24 0ZM37.5417 35.1276C37.5417 36.7188 36.1875 38.0208 34.5327 38.0208H13.4673C11.8125 38.0208 10.4583 36.7188 10.4583 35.1276V14.8724C10.4583 13.2812 11.8125 11.9792 13.4673 11.9792H34.5327C36.1875 11.9792 37.5417 13.2812 37.5417 14.8724V35.1276Z" fill="#FFF6F6"/>
</g>
<defs>
<clipPath id="clip0_1_24">
<rect width="50" height="50" rx="25" fill="white"/>
</clipPath>
</defs>
</svg>
