<svg width="50" height="51" viewBox="0 0 50 51" fill="none" xmlns="http://www.w3.org/2000/svg">
<path d="M49.8913 15.2293L44.0761 33.7295C43.6413 35.047 42.5 35.9254 41.1413 35.9254H18.6957C17.3913 35.9254 16.1413 35.1019 15.7065 33.8942L7.11957 10.6729H2.17391C0.978261 10.6729 0 9.68473 0 8.477C0 7.26927 0.978261 6.28113 2.17391 6.28113H8.6413C9.56522 6.28113 10.3804 6.88499 10.7065 7.76334L19.5652 31.5337H40.2174L44.837 16.7115H19.2391C18.0435 16.7115 17.0652 15.7234 17.0652 14.5156C17.0652 13.3079 18.0435 12.3198 19.2391 12.3198H47.8261C48.5326 12.3198 49.1848 12.7041 49.5652 13.253C50 13.802 50.1087 14.5705 49.8913 15.2293ZM19.7826 38.8349C18.8587 38.8349 17.9348 39.2192 17.2826 39.878C16.6304 40.5367 16.25 41.47 16.25 42.4032C16.25 43.3365 16.6304 44.2697 17.2826 44.9285C17.9348 45.5872 18.8587 45.9715 19.7826 45.9715C20.7065 45.9715 21.6304 45.5872 22.2826 44.9285C22.9348 44.2697 23.3152 43.3365 23.3152 42.4032C23.3152 41.47 22.9348 40.5367 22.2826 39.878C21.6304 39.2192 20.7065 38.8349 19.7826 38.8349ZM39.2935 38.8349C38.3696 38.8349 37.4456 39.2192 36.7935 39.878C36.1413 40.5367 35.7609 41.47 35.7609 42.4032C35.7609 43.3365 36.1413 44.2697 36.7935 44.9285C37.4456 45.5872 38.3696 45.9715 39.2935 45.9715C40.2174 45.9715 41.1413 45.5872 41.7935 44.9285C42.4457 44.2697 42.8261 43.3365 42.8261 42.4032C42.8261 41.47 42.4457 40.5367 41.7935 39.878C41.1413 39.2192 40.2174 38.8349 39.2935 38.8349Z" fill="url(#paint0_linear_37_74)"/>
<defs>
<linearGradient id="paint0_linear_37_74" x1="25" y1="6.28113" x2="25" y2="45.9715" gradientUnits="userSpaceOnUse">
<stop stop-color="#A60311"/>
<stop offset="0.775" stop-color="#ABC5CF"/>
</linearGradient>
</defs>
</svg>
