<svg width="70" height="50" viewBox="0 0 70 50" fill="none" xmlns="http://www.w3.org/2000/svg">
<path d="M6.94444 0C3.125 0 0 3.125 0 6.94444V43.0556C0 46.875 3.125 50 6.94444 50H62.5C66.3194 50 69.4444 46.875 69.4444 43.0556V6.94444C69.4444 3.125 66.3194 0 62.5 0H6.94444ZM6.94444 2.77778H62.5C64.8166 2.77778 66.6667 4.62782 66.6667 6.94444V43.0556C66.6667 45.3722 64.8166 47.2222 62.5 47.2222H6.94444C4.62782 47.2222 2.77778 45.3722 2.77778 43.0556V6.94444C2.77778 4.62782 4.62782 2.77778 6.94444 2.77778ZM23.6111 8.33333C14.4206 8.33333 6.94444 15.8095 6.94444 25C6.94444 34.1905 14.4206 41.6667 23.6111 41.6667C27.8863 41.6667 31.7708 40.0228 34.7222 37.3698C37.6736 40.0228 41.5636 41.6667 45.8333 41.6667C55.0239 41.6667 62.5 34.1905 62.5 25C62.5 15.8095 55.0239 8.33333 45.8333 8.33333C41.5636 8.33333 37.6736 9.97721 34.7222 12.6302C31.7708 9.97721 27.8863 8.33333 23.6111 8.33333ZM45.8333 11.1111C53.521 11.1111 59.7222 17.3123 59.7222 25C59.7222 32.6877 53.521 38.8889 45.8333 38.8889C42.2906 38.8889 39.0408 37.5922 36.5885 35.4167C38.8835 32.5575 40.2778 28.9442 40.2778 25C40.2778 21.0558 38.8835 17.4425 36.5885 14.5833C39.0408 12.4078 42.2906 11.1111 45.8333 11.1111Z" fill="#A60311"/>
</svg>
