<svg width="50" height="51" viewBox="0 0 50 51" fill="none" xmlns="http://www.w3.org/2000/svg">
<path d="M20.4491 5.73645C16.6502 5.73645 12.8516 7.2102 9.96094 10.158C4.17969 16.0536 4.17969 25.6536 9.96094 31.5492C12.8516 34.497 16.6408 35.9715 20.4689 35.9715C24.297 35.9715 28.0862 34.497 30.9769 31.5492C36.7191 25.6536 36.7184 16.0536 30.9372 10.158C28.0466 7.2102 24.2479 5.73645 20.4491 5.73645ZM20.43 8.08688C23.6331 8.08688 26.8361 9.32115 29.258 11.8308C34.1408 16.8102 34.1406 24.897 29.2969 29.8764C24.4141 34.8558 16.4841 34.8558 11.6013 29.8764C6.71844 24.897 6.71844 16.8102 11.6013 11.8308C14.0231 9.36098 17.2269 8.08688 20.43 8.08688ZM20.43 10.477C17.7347 10.477 15.1953 11.5522 13.2812 13.544C11.4453 15.4162 10.4298 17.8463 10.3127 20.4755C10.2736 21.1527 10.7816 21.6704 11.4456 21.7102H11.4845C12.1095 21.7102 12.6173 21.1922 12.6564 20.5548C12.7345 18.5232 13.5544 16.6508 14.9216 15.2168C16.4059 13.703 18.3597 12.8671 20.43 12.8671C21.0941 12.8671 21.6019 12.3492 21.6019 11.672C21.6019 10.9948 21.0941 10.477 20.43 10.477ZM13.6719 25.4945C13.3611 25.4945 13.063 25.6204 12.8432 25.8446C12.6235 26.0687 12.5 26.3726 12.5 26.6896C12.5 27.0065 12.6235 27.3105 12.8432 27.5346C13.063 27.7587 13.3611 27.8846 13.6719 27.8846C13.9827 27.8846 14.2807 27.7587 14.5005 27.5346C14.7203 27.3105 14.8438 27.0065 14.8438 26.6896C14.8438 26.3726 14.7203 26.0687 14.5005 25.8446C14.2807 25.6204 13.9827 25.4945 13.6719 25.4945ZM32.5638 32.0673C32.2659 32.0673 31.973 32.187 31.7581 32.426C31.2894 32.904 31.2894 33.6606 31.7581 34.0988L32.7347 35.0947C32.5003 35.5727 32.383 36.0907 32.383 36.6484C32.383 37.6044 32.7344 38.5208 33.3984 39.198L38.3987 44.2171C39.1019 44.9341 39.9997 45.2923 40.8981 45.2923C41.7966 45.2923 42.6952 44.9339 43.3983 44.2567C44.7655 42.8625 44.7655 40.5922 43.3983 39.198L38.3987 34.0988C37.7347 33.4216 36.8361 33.0632 35.8986 33.0632C35.3517 33.0632 34.8438 33.1829 34.375 33.4219L33.3984 32.426C33.1641 32.187 32.8616 32.0673 32.5638 32.0673ZM35.8986 35.4136C36.2111 35.4136 36.5234 35.5333 36.7188 35.7723L41.6794 40.8311C42.1481 41.3091 42.1481 42.0657 41.6794 42.5038C41.2106 42.9819 40.4688 42.9819 40.0391 42.5038L35.0784 37.4848C34.8441 37.2458 34.7267 36.9274 34.7267 36.6087C34.7267 36.29 34.8441 35.9715 35.0784 35.7723C35.3128 35.5333 35.5861 35.4136 35.8986 35.4136Z" fill="black"/>
</svg>
