<svg width="70" height="50" viewBox="0 0 70 50" fill="none" xmlns="http://www.w3.org/2000/svg">
<path d="M6.94441 0C3.12497 0 -3.05176e-05 3.125 -3.05176e-05 6.94444V43.0556C-3.05176e-05 46.875 3.12497 50 6.94441 50H62.5C66.3194 50 69.4444 46.875 69.4444 43.0556V6.94444C69.4444 3.125 66.3194 0 62.5 0H6.94441ZM6.94441 2.77778H62.5C64.8166 2.77778 66.6666 4.62782 66.6666 6.94444V43.0556C66.6666 45.3722 64.8166 47.2222 62.5 47.2222H6.94441C4.62779 47.2222 2.77775 45.3722 2.77775 43.0556V6.94444C2.77775 4.62782 4.62779 2.77778 6.94441 2.77778ZM41.2326 17.2309C36.9249 17.2309 34.7222 19.3522 34.7222 22.0486C34.7222 26.926 40.3645 26.2695 40.3645 28.776C40.3645 29.1992 40.039 30.2083 37.6736 30.2083C35.3027 30.2083 33.7673 29.2969 33.7673 29.2969L33.0295 32.5955C33.0295 32.5955 34.5648 33.4635 37.5 33.4635C40.4351 33.4635 44.4878 31.2174 44.4878 27.9514C44.4878 24.0234 38.8454 23.7142 38.8454 21.9618C38.8454 21.0666 39.5399 20.3993 41.5798 20.3993C42.9036 20.3993 44.401 21.3976 44.401 21.3976L45.0954 18.0122C45.0954 18.0122 43.126 17.2309 41.2326 17.2309ZM22.8732 17.5347L19.1406 28.559C19.1406 28.559 18.8856 27.6204 18.7934 27.0399C16.6612 22.2548 13.1944 20.4861 13.1944 20.4861L16.493 32.9861H21.0069L27.2569 17.5347H22.8732ZM28.8628 17.5347L26.4323 32.9861H30.5555L33.0295 17.5347H28.8628ZM51.1284 17.5347L44.401 32.9861H48.4809L49.3055 30.7726H54.427L54.8611 32.9861H58.5937L55.4253 17.5347H51.1284ZM8.68052 17.5781C8.68052 17.5781 16.7426 20.0738 18.6198 26.1285L17.2309 19.0972C17.2309 19.0972 16.6341 17.5781 15.0173 17.5781H8.68052ZM52.6909 22.0052L53.8194 27.8212H50.434L52.6909 22.0052Z" fill="#A60311"/>
</svg>
